<svg id="Logo_GEO" xmlns="http://www.w3.org/2000/svg" xmlns:xlink="http://www.w3.org/1999/xlink" width="57.676" height="71" viewBox="0 0 57.676 71">
  <defs>
    <clipPath id="clip-path">
      <path id="Path_84" data-name="Path 84" d="M0-31.832H57.676v-71H0Z" transform="translate(0 102.832)" fill="none"/>
    </clipPath>
  </defs>
  <g id="Group_108" data-name="Group 108" clip-path="url(#clip-path)">
    <g id="Group_88" data-name="Group 88" transform="translate(0.368 51.833)">
      <path id="Path_64" data-name="Path 64" d="M-1.58-4.608a4.043,4.043,0,0,1-2.553-.733,2.4,2.4,0,0,1-.972-2.03V-8.2h1.959v.649a1.194,1.194,0,0,0,.409,1.085,2.791,2.791,0,0,0,1.241.31c.776,0,1.283-.325,1.283-1.212,0-.55-.084-.832-.253-.832H-1.876V-9.711h1.34c.2,0,.3-.142.281-.424.014-.24-.084-.353-.281-.353h-1.34V-12.01H-.551c.155,0,.225-.127.225-.367s-.282-.338-.845-.352q-2.623-.211-2.622-2.157H-1.9c0,.183.155.352.465.479a4.077,4.077,0,0,0,1.255.254c1.156.14,1.819.7,1.819,1.692a1.472,1.472,0,0,1-.55,1.156,1.345,1.345,0,0,1,.62,1.2,1.309,1.309,0,0,1-.664,1.17A2.17,2.17,0,0,1,1.761-7.3c0,1.677-1.127,2.693-3.342,2.693" transform="translate(5.105 14.886)" fill="#021963"/>
    </g>
    <g id="Group_89" data-name="Group 89" transform="translate(9.026 51.818)">
      <path id="Path_65" data-name="Path 65" d="M-2.048-1.543c0-.973-.69-1.889-1.409-1.889a1.15,1.15,0,0,0-.833.48,2.39,2.39,0,0,0-.3.987,16.574,16.574,0,0,0-.1,1.9A6.741,6.741,0,0,0-4.261,2.6,5.973,5.973,0,0,0-2.217,5.112H-4.6A5.322,5.322,0,0,1-6.207,2.8,8.691,8.691,0,0,1-6.616-.063c0-4.046,1.3-4.92,3.159-4.92A2.653,2.653,0,0,1-1.131-3.714,2.8,2.8,0,0,1,1.238-4.983c1.819,0,3.144.9,3.144,4.92A8.672,8.672,0,0,1,3.972,2.8,5.311,5.311,0,0,1,2.365,5.112H.01A6.246,6.246,0,0,0,2.027,2.574,6.893,6.893,0,0,0,2.435-.063a5.985,5.985,0,0,0-.394-2.889,1.039,1.039,0,0,0-.8-.48,1.238,1.238,0,0,0-.974.564H.278a2.178,2.178,0,0,0-.464,1.31V1.461H-2.048Z" transform="translate(6.616 4.983)" fill="#021963"/>
    </g>
    <g id="Group_90" data-name="Group 90" transform="translate(21.696 51.833)">
      <path id="Path_66" data-name="Path 66" d="M-2.048-2.8A2.226,2.226,0,0,0-2.5-4.3a1.157,1.157,0,0,0-.846-.522c-.846,0-1.3.789-1.34,2.031,0,1.141.846,2.341,2.3,3.89H-4.755a5.051,5.051,0,0,1-1.86-3.863,6.15,6.15,0,0,1,.394-2.029A7.306,7.306,0,0,1-4.007-7.835c.987-.831,2.594-1.212,4.864-1.212V-7.5a8.622,8.622,0,0,0-2.975.451A3.677,3.677,0,0,0-3.3-6.368,2.421,2.421,0,0,1-1.131-5.114,2.6,2.6,0,0,1,1.125-6.368,2.937,2.937,0,0,1,3.494-5.339a4,4,0,0,1,.888,2.58A5.032,5.032,0,0,1,2.534,1.1H.109A7.908,7.908,0,0,0,1.83-.869a3.967,3.967,0,0,0,.606-1.89c0-1.24-.62-2.058-1.31-2.058a1.3,1.3,0,0,0-.874.507A2.259,2.259,0,0,0-.187-2.885V-1.7H-2.048Z" transform="translate(6.615 9.047)" fill="#021963"/>
    </g>
    <g id="Group_91" data-name="Group 91" transform="translate(34.295 51.833)">
      <path id="Path_67" data-name="Path 67" d="M-2.648-.373a2.846,2.846,0,0,1,.846,2.2V5.8A3.074,3.074,0,0,1-5.144,9.059,3.226,3.226,0,0,1-8.555,5.591a3.729,3.729,0,0,1,.451-1.4l1.72.606a1.612,1.612,0,0,0-.24.791,2,2,0,0,0,.465,1.438,1.354,1.354,0,0,0,1.016.493c.917,0,1.453-.677,1.453-1.721v-4A1.269,1.269,0,0,0-5.045.346,1,1,0,0,0-6.13,1.4a1.6,1.6,0,0,0,.14.69l-1.819.579a4.861,4.861,0,0,1-.282-1.284A2.749,2.749,0,0,1-5.03-1.205a3.384,3.384,0,0,1,2.382.832" transform="translate(8.555 1.205)" fill="#021963"/>
    </g>
    <g id="Group_92" data-name="Group 92" transform="translate(42.375 51.861)">
      <path id="Path_68" data-name="Path 68" d="M-3.084-2.914V-2.1A2.887,2.887,0,0,1-4.226.074,4.021,4.021,0,0,1-6.6.836a3.635,3.635,0,0,1-2.34-.846A2.835,2.835,0,0,1-9.964-2.182,4.9,4.9,0,0,1-9.7-3.69l1.818.508A3.208,3.208,0,0,0-8-2.253,1.554,1.554,0,0,0-6.581-.7a1.622,1.622,0,0,0,1.1-.423,1.3,1.3,0,0,0,.409-.987v-.748C-5.072-4-5.495-4.41-6.327-4.41h-.592V-6.072h.592A1.052,1.052,0,0,0-5.2-7.172,2.171,2.171,0,0,0-5.4-8.1,3.59,3.59,0,0,0-6.68-9.414h2.341A3.875,3.875,0,0,1-3.282-7.172a2.434,2.434,0,0,1-1,2.029,2.567,2.567,0,0,1,1.2,2.229" transform="translate(9.964 9.414)" fill="#021963"/>
    </g>
    <g id="Group_93" data-name="Group 93" transform="translate(50.725 51.833)">
      <path id="Path_69" data-name="Path 69" d="M-3.117-2.762A5.224,5.224,0,0,1-3.807.015,3.01,3.01,0,0,1-6.5,1.354,3.187,3.187,0,0,1-9.264.085a5.135,5.135,0,0,1-.8-2.989A4.352,4.352,0,0,1-9.728-4.6c.253.084.606.212.93.309.325.113.663.24.916.325a3.929,3.929,0,0,0-.225,1.226,4.471,4.471,0,0,0,.253,1.621A1.4,1.4,0,0,0-6.5-.2a1.3,1.3,0,0,0,1.17-.9,4.432,4.432,0,0,0,.268-1.509A3.335,3.335,0,0,0-6.317-5.245,4.66,4.66,0,0,1-7.8-8.924h2.046A3.025,3.025,0,0,0-4.667-6.217a4.488,4.488,0,0,1,1.55,3.455" transform="translate(10.068 8.924)" fill="#021963"/>
    </g>
    <g id="Group_94" data-name="Group 94" transform="translate(28.848 20.404)">
      <path id="Path_70" data-name="Path 70" d="M-7.656-.443c0-.135-.229-.328-.389-.381a9.067,9.067,0,0,0-4.1-.548c-1.852.258-3.688.65-5.523,1.027a12.405,12.405,0,0,1-6.348-.131c-.213-.067-.431-.117-.713-.193v3.36s.368.139.485.178a10.926,10.926,0,0,0,5.51.371c1.38-.26,2.748-.582,4.123-.87a12.163,12.163,0,0,1,5.985.051c.3.088.614.157.993.254,0-1.094.014-2.107-.018-3.119" transform="translate(24.734 1.432)" fill="#a8020c"/>
    </g>
    <g id="Group_95" data-name="Group 95" transform="translate(11.814 20.493)">
      <path id="Path_71" data-name="Path 71" d="M-7.637-.3c-.193-.057-.321-.1-.453-.133C-8.883-.6-9.671-.816-10.473-.909a18.871,18.871,0,0,0-6.61.854,12.554,12.554,0,0,1-6.987-.03,5.9,5.9,0,0,0-.589-.122c0,1,.026,1.937-.012,2.87-.015.4.137.6.489.653,1.075.18,2.147.416,3.231.494a19.951,19.951,0,0,0,5.9-.925,12.614,12.614,0,0,1,7.41.177Z" transform="translate(24.671 0.972)" fill="#021963"/>
    </g>
    <g id="Group_96" data-name="Group 96" transform="translate(28.848 13.603)">
      <path id="Path_72" data-name="Path 72" d="M-7.656-.443c0-.135-.229-.328-.389-.381a9.067,9.067,0,0,0-4.1-.548c-1.852.258-3.688.65-5.523,1.027a12.405,12.405,0,0,1-6.348-.131c-.213-.067-.431-.117-.713-.193v3.36s.368.139.485.178a10.919,10.919,0,0,0,5.51.371c1.38-.26,2.748-.582,4.123-.87a12.163,12.163,0,0,1,5.985.051c.3.088.614.157.993.254,0-1.094.014-2.107-.018-3.119" transform="translate(24.734 1.432)" fill="#a8020c"/>
    </g>
    <g id="Group_97" data-name="Group 97" transform="translate(11.814 13.691)">
      <path id="Path_73" data-name="Path 73" d="M-7.637-.3c-.193-.057-.321-.1-.453-.133C-8.883-.6-9.671-.816-10.473-.909a18.855,18.855,0,0,0-6.61.855A12.56,12.56,0,0,1-24.07-.085a5.9,5.9,0,0,0-.589-.122c0,1,.026,1.937-.012,2.87-.015.4.137.6.489.653,1.075.18,2.147.416,3.231.494a19.952,19.952,0,0,0,5.9-.925,12.614,12.614,0,0,1,7.41.177Z" transform="translate(24.671 0.972)" fill="#021963"/>
    </g>
    <g id="Group_98" data-name="Group 98" transform="translate(28.81 14.356)">
      <path id="Path_74" data-name="Path 74" d="M-.007,0l-.014,0c0,.006,0,.012,0,.018Z" transform="translate(0.021 0.007)" fill="#0054f9"/>
    </g>
    <g id="Group_99" data-name="Group 99" transform="translate(32.275 0)">
      <path id="Path_75" data-name="Path 75" d="M-6.12-.443c0-.135-.229-.328-.389-.381a9.067,9.067,0,0,0-4.1-.548c-1.852.258-3.688.65-5.522,1.027a14.848,14.848,0,0,1-3.635.33V3.416A10.945,10.945,0,0,0-17.2,3.24c1.38-.26,2.749-.582,4.123-.87a12.165,12.165,0,0,1,5.985.051c.3.088.613.157.992.254,0-1.094.015-2.107-.018-3.119" transform="translate(19.771 1.432)" fill="#a8020c"/>
    </g>
    <g id="Group_100" data-name="Group 100" transform="translate(32.275 27.231)">
      <path id="Path_76" data-name="Path 76" d="M-6.12-.443c0-.135-.229-.328-.389-.381a9.067,9.067,0,0,0-4.1-.548c-1.852.258-3.688.65-5.522,1.027a14.848,14.848,0,0,1-3.635.33V3.416A10.945,10.945,0,0,0-17.2,3.24c1.38-.26,2.749-.582,4.123-.87a12.165,12.165,0,0,1,5.985.051c.3.088.613.157.992.254,0-1.094.015-2.107-.018-3.119" transform="translate(19.771 1.432)" fill="#a8020c"/>
    </g>
    <g id="Group_101" data-name="Group 101" transform="translate(32.275 6.802)">
      <path id="Path_77" data-name="Path 77" d="M-6.12-.443c0-.135-.229-.328-.389-.381a9.067,9.067,0,0,0-4.1-.548c-1.852.258-3.688.65-5.522,1.027a14.848,14.848,0,0,1-3.635.33V3.416A10.945,10.945,0,0,0-17.2,3.24c1.38-.26,2.749-.582,4.123-.87a12.165,12.165,0,0,1,5.985.051c.3.088.613.157.992.254,0-1.094.015-2.107-.018-3.119" transform="translate(19.771 1.432)" fill="#a8020c"/>
    </g>
    <g id="Group_102" data-name="Group 102" transform="translate(11.814 0.096)">
      <path id="Path_78" data-name="Path 78" d="M-6.1-.007a20.947,20.947,0,0,0-6.02.9A12.554,12.554,0,0,1-19.108.859,5.887,5.887,0,0,0-19.7.737c0,1,.025,1.937-.012,2.87-.015.4.137.6.489.653,1.075.18,2.148.416,3.231.494a19.974,19.974,0,0,0,5.9-.925A16.09,16.09,0,0,1-6.1,3.373Z" transform="translate(19.709 0.021)" fill="#021963"/>
    </g>
    <g id="Group_103" data-name="Group 103" transform="translate(11.814 6.897)">
      <path id="Path_79" data-name="Path 79" d="M-6.1-.007a20.947,20.947,0,0,0-6.02.9,12.56,12.56,0,0,1-6.987-.03A5.521,5.521,0,0,0-19.7.738c0,1,.025,1.937-.012,2.869-.015.4.137.6.489.653,1.075.18,2.148.416,3.231.494a19.974,19.974,0,0,0,5.9-.925A16.09,16.09,0,0,1-6.1,3.373Z" transform="translate(19.709 0.021)" fill="#021963"/>
    </g>
    <g id="Group_104" data-name="Group 104" transform="translate(32.275 34.051)">
      <path id="Path_80" data-name="Path 80" d="M-6.12-.443c0-.135-.229-.328-.389-.381a9.067,9.067,0,0,0-4.1-.548c-1.852.258-3.688.65-5.522,1.027a14.848,14.848,0,0,1-3.635.33V3.416A10.945,10.945,0,0,0-17.2,3.24c1.38-.26,2.749-.582,4.123-.87a12.165,12.165,0,0,1,5.985.051c.3.088.613.157.992.253,0-1.093.015-2.107-.018-3.118" transform="translate(19.771 1.432)" fill="#a8020c"/>
    </g>
    <g id="Group_105" data-name="Group 105" transform="translate(11.814 27.327)">
      <path id="Path_81" data-name="Path 81" d="M-6.1-.007a20.947,20.947,0,0,0-6.02.9,12.56,12.56,0,0,1-6.987-.03A5.681,5.681,0,0,0-19.7.737c0,1,.025,1.937-.012,2.87-.015.4.137.6.489.653,1.075.18,2.148.416,3.231.494a19.951,19.951,0,0,0,5.9-.924A16.09,16.09,0,0,1-6.1,3.373Z" transform="translate(19.709 0.021)" fill="#021963"/>
    </g>
    <g id="Group_106" data-name="Group 106" transform="translate(11.814 34.147)">
      <path id="Path_82" data-name="Path 82" d="M-6.1-.007a20.947,20.947,0,0,0-6.02.9A12.56,12.56,0,0,1-19.108.859,5.887,5.887,0,0,0-19.7.737c0,1,.025,1.937-.012,2.87-.015.4.137.6.489.653,1.075.18,2.148.416,3.231.494a19.973,19.973,0,0,0,5.9-.924A16.09,16.09,0,0,1-6.1,3.373Z" transform="translate(19.709 0.021)" fill="#021963"/>
    </g>
    <g id="Group_107" data-name="Group 107" transform="translate(0 68.755)">
      <path id="Path_83" data-name="Path 83" d="M-.634-.648a.55.55,0,0,0-.334-.517.505.505,0,0,0,.291-.47.745.745,0,0,0-.2-.446h-.427c.242.161.362.313.362.449a.314.314,0,0,1-.35.322h-.171v.241h.171c.248,0,.381.117.381.43v.177a.414.414,0,0,1-.443.4.443.443,0,0,1-.421-.431.678.678,0,0,1,.052-.313L-1.969-.89a.965.965,0,0,0-.08.409.658.658,0,0,0,.693.628.668.668,0,0,0,.722-.6Zm2.376-.1H2L2-1.37a.482.482,0,0,1,.418-.508.332.332,0,0,1,.26.139,1.4,1.4,0,0,1,.108.715A1.444,1.444,0,0,1,2.169.132h.384a1.463,1.463,0,0,0,.5-1.155A1.4,1.4,0,0,0,2.875-1.9a.6.6,0,0,0-.458-.195.6.6,0,0,0-.548.4.588.588,0,0,0-.543-.4A.6.6,0,0,0,.867-1.9a1.393,1.393,0,0,0-.182.873,1.464,1.464,0,0,0,.5,1.155h.385A1.414,1.414,0,0,1,.954-1.023a1.363,1.363,0,0,1,.111-.718.324.324,0,0,1,.26-.137.488.488,0,0,1,.416.511ZM5.429-.4l.255,0,0-.331c0-.316.192-.523.39-.523.235,0,.4.245.4.554,0,.275-.2.548-.6.821h.387A.954.954,0,0,0,6.742-.7a.684.684,0,0,0-.665-.768.579.579,0,0,0-.52.4.573.573,0,0,0-.515-.4.561.561,0,0,0-.248.077,1.37,1.37,0,0,1,1.134-.486v-.213a1.381,1.381,0,0,0-1.472.941A1.326,1.326,0,0,0,4.374-.7a.954.954,0,0,0,.473.821h.4c-.4-.264-.6-.542-.6-.83,0-.3.127-.545.4-.545.193,0,.387.214.387.542Zm2.6-.4a.919.919,0,0,0-.065.328c0,.322.223.616.718.616a.64.64,0,0,0,.7-.635.608.608,0,0,0-.369-.554.392.392,0,0,0,.267-.4.383.383,0,0,0-.263-.347c-.177-.086-.267-.182-.267-.288H8.445a.386.386,0,0,0,.284.387c.189.071.285.161.285.269a.238.238,0,0,1-.269.269H8.507V-.94h.238c.171,0,.359.229.359.452a.4.4,0,0,1-.418.421A.4.4,0,0,1,8.343-.2a.541.541,0,0,1-.061-.533Zm3.725.052h.255l0-.626a.483.483,0,0,1,.418-.508.332.332,0,0,1,.26.139,1.409,1.409,0,0,1,.108.715A1.444,1.444,0,0,1,12.187.132h.383a1.464,1.464,0,0,0,.5-1.155,1.392,1.392,0,0,0-.18-.873.6.6,0,0,0-.458-.195.6.6,0,0,0-.548.4.589.589,0,0,0-.543-.4.6.6,0,0,0-.458.195,1.388,1.388,0,0,0-.182.873A1.461,1.461,0,0,0,11.2.132h.384a1.414,1.414,0,0,1-.617-1.155,1.361,1.361,0,0,1,.112-.718.323.323,0,0,1,.26-.137.488.488,0,0,1,.415.511ZM15.447-.4l.254,0,0-.331c0-.316.192-.523.389-.523.235,0,.4.245.4.554,0,.275-.2.548-.6.821h.387A.954.954,0,0,0,16.759-.7a.684.684,0,0,0-.665-.768.58.58,0,0,0-.52.4.573.573,0,0,0-.514-.4.556.556,0,0,0-.248.077,1.37,1.37,0,0,1,1.134-.486v-.213a1.38,1.38,0,0,0-1.471.941,1.311,1.311,0,0,0-.084.449.954.954,0,0,0,.474.821h.4c-.4-.264-.6-.542-.6-.83,0-.3.127-.545.4-.545.192,0,.387.214.387.542ZM18.54-2.094a.915.915,0,0,0,.318.724.867.867,0,0,1,.316.672c0,.374-.211.631-.425.631-.269,0-.465-.278-.465-.693a.971.971,0,0,1,.078-.371l-.248-.1a.8.8,0,0,0-.1.434c0,.573.293.944.733.944.385,0,.694-.343.694-.882a.96.96,0,0,0-.328-.746.716.716,0,0,1-.291-.61Zm4.037,1.17a.944.944,0,0,0-.851-1.059l.021-.1H21.49l.034.1A.945.945,0,0,0,20.68-.924.951.951,0,0,0,21.629.151a.95.95,0,0,0,.948-1.074m-.278,0c0,.526-.263.861-.67.861s-.675-.344-.675-.864.257-.805.569-.855l-.04.9h.286l-.043-.9c.319.046.573.34.573.861M24.352.107a3.334,3.334,0,0,1-.269-1.223c0-.431.164-.765.434-.765s.44.344.44.765A3.372,3.372,0,0,1,24.693.107H25a3,3,0,0,0,.232-1.174c0-.6-.269-1.027-.709-1.027s-.706.427-.706,1.027A3,3,0,0,0,24.045.107Zm3.462-1.681a.456.456,0,0,0-.516-.517.381.381,0,0,0-.378.3c-.052-.2-.226-.3-.521-.3v.213c.309,0,.465.112.465.335v.291l.232,0v-.288c0-.223.068-.335.2-.335.167,0,.254.1.254.3v.96c0,.416-.235.552-.428.552a.457.457,0,0,1-.452-.465.375.375,0,0,1,.093-.244l-.253-.1a.632.632,0,0,0-.112.34.662.662,0,0,0,.715.672.674.674,0,0,0,.7-.759ZM32.056-.567a1.184,1.184,0,0,0,.291-.722c0-.539-.293-.777-.626-.777a.539.539,0,0,0-.489.34.473.473,0,0,0-.458-.368.433.433,0,0,0-.455.368.537.537,0,0,0-.49-.34c-.331,0-.625.251-.625.849,0,.849.681,1.362,1.808,1.362h.523V-.109h-.458c-1.128,0-1.6-.418-1.6-1.119a.791.791,0,0,1,.115-.49.323.323,0,0,1,.235-.136c.2,0,.356.171.356.486v.446h.266v-.446c0-.313.1-.514.322-.514.192,0,.322.2.325.492V-.93h.263v-.458c.009-.294.124-.465.359-.465.158,0,.357.167.357.564a1.091,1.091,0,0,1-.387.722Zm2.127.675a3.336,3.336,0,0,1-.27-1.223c0-.431.164-.765.434-.765s.44.344.44.765A3.374,3.374,0,0,1,34.524.107h.3a3,3,0,0,0,.232-1.174c0-.6-.269-1.027-.709-1.027s-.706.427-.706,1.027A3,3,0,0,0,33.877.107ZM39.317-.4A.438.438,0,0,0,39.1-.788a.3.3,0,0,0,.2-.266.291.291,0,0,0-.214-.276.279.279,0,0,0,.2-.272c0-.192-.111-.3-.34-.316-.322-.028-.48-.087-.48-.177h-.257c0,.211.173.328.52.356.189.009.282.061.282.157s-.046.155-.139.155h-.4v.207h.4a.137.137,0,0,1,.155.158c0,.111-.05.17-.155.17h-.391v.2h.406c.1,0,.152.09.152.267,0,.257-.158.353-.391.353s-.474-.084-.474-.4V-.6h-.272v.183c0,.359.284.566.724.566s.687-.21.687-.551m1.75.511a3.322,3.322,0,0,1-.27-1.223c0-.431.164-.765.434-.765s.44.344.44.765A3.372,3.372,0,0,1,41.408.107h.3a3,3,0,0,0,.232-1.174c0-.6-.269-1.027-.709-1.027s-.706.427-.706,1.027A3.011,3.011,0,0,0,40.76.107Zm3.666-.752a.742.742,0,0,0-.412-.669.593.593,0,0,0,.1-.341c0-.266-.238-.439-.541-.439s-.542.157-.542.387a.557.557,0,0,0,.028.173l.241-.03a.37.37,0,0,1-.028-.133c0-.1.1-.183.3-.183s.31.111.31.22a.616.616,0,0,1-.062.282.758.758,0,0,0-.189-.012c-.533.04-.789.325-.789.746a.747.747,0,0,0,.805.792.732.732,0,0,0,.78-.792m-.262,0c0,.461-.226.582-.517.582-.307,0-.539-.139-.539-.588a.468.468,0,0,1,.523-.527.49.49,0,0,1,.533.533M46.48.107a3.334,3.334,0,0,1-.269-1.223c0-.431.164-.765.434-.765s.44.344.44.765A3.386,3.386,0,0,1,46.821.107h.3a3,3,0,0,0,.232-1.174c0-.6-.269-1.027-.709-1.027s-.706.427-.706,1.027A3,3,0,0,0,46.173.107Zm3.474-1.57a.6.6,0,0,0-.663-.628.553.553,0,0,0-.619.53.883.883,0,0,0,.071.3L49-1.342a.408.408,0,0,1-.052-.22.314.314,0,0,1,.344-.316.373.373,0,0,1,.406.409v.933a.422.422,0,0,1-.428.47.466.466,0,0,1-.434-.52.428.428,0,0,1,.081-.242l-.232-.1a.778.778,0,0,0-.117.34.666.666,0,0,0,.7.728.637.637,0,0,0,.688-.681Zm2.1-.006a.643.643,0,0,0-.477.241l0-.393c0-.149.071-.226.211-.226h.837v-.232H51.79a.409.409,0,0,0-.47.452v1a.677.677,0,0,0,.722.771.718.718,0,0,0,.749-.82.711.711,0,0,0-.737-.8m0,.213c.291,0,.458.211.458.585,0,.393-.162.6-.471.6-.291,0-.462-.2-.462-.557,0-.425.183-.632.474-.632m2.474-.839a.913.913,0,0,0,.319.724.869.869,0,0,1,.316.672c0,.374-.211.631-.425.631-.269,0-.465-.278-.465-.693a.983.983,0,0,1,.077-.371l-.247-.1A.8.8,0,0,0,54-.8c0,.573.294.944.734.944.384,0,.693-.343.693-.882a.96.96,0,0,0-.327-.746.718.718,0,0,1-.292-.61Z" transform="translate(2.049 2.094)" fill="#031a62"/>
    </g>
  </g>
</svg>
