<svg id="Logo_ENG" xmlns="http://www.w3.org/2000/svg" xmlns:xlink="http://www.w3.org/1999/xlink" width="61.316" height="70.813" viewBox="0 0 61.316 70.813">
  <defs>
    <clipPath id="clip-path">
      <path id="Path_88" data-name="Path 88" d="M0-31.748H61.316v-70.813H0Z" transform="translate(0 102.561)" fill="none"/>
    </clipPath>
  </defs>
  <g id="Group_110" data-name="Group 110" transform="translate(0 52.058)">
    <path id="Path_85" data-name="Path 85" d="M-3.009,0V3.976H-7.76V0H-9.719V9.871H-7.76V5.809h4.751V9.871h1.974V0Z" transform="translate(9.719)" fill="#021963"/>
  </g>
  <g id="Group_113" data-name="Group 113" transform="translate(0 0)" clip-path="url(#clip-path)">
    <g id="Group_111" data-name="Group 111" transform="translate(10.5 51.875)">
      <path id="Path_86" data-name="Path 86" d="M-4-.651A5.06,5.06,0,0,1-2.549,3.016,5.1,5.1,0,0,1-4,6.681,5.242,5.242,0,0,1-7.738,8.134a5.237,5.237,0,0,1-3.735-1.453,5.1,5.1,0,0,1-1.453-3.665A5.06,5.06,0,0,1-11.473-.651,5.176,5.176,0,0,1-7.738-2.1,5.181,5.181,0,0,1-4-.651M-9.98.675a3.244,3.244,0,0,0-.888,2.341A3.214,3.214,0,0,0-9.98,5.342a3.092,3.092,0,0,0,2.242.9,3.087,3.087,0,0,0,2.241-.9,3.213,3.213,0,0,0,.89-2.326A3.242,3.242,0,0,0-5.5.675,3.075,3.075,0,0,0-7.738-.214,3.08,3.08,0,0,0-9.98.675" transform="translate(12.926 2.103)" fill="#021963"/>
    </g>
    <g id="Group_112" data-name="Group 112" transform="translate(22.707 52.058)">
      <path id="Path_87" data-name="Path 87" d="M-1.871,0A4.165,4.165,0,0,1,.822.791,2.757,2.757,0,0,1,1.739,3a2.654,2.654,0,0,1-.79,1.988,3.589,3.589,0,0,1-2.227.916L1.754,9.87H-.629L-3.506,5.936h-.577V9.87H-6.043V0ZM-4.084,1.8V4.231h2.171c1.086,0,1.636-.4,1.636-1.228S-.855,1.8-1.913,1.8Z" transform="translate(6.043)" fill="#021963"/>
    </g>
  </g>
  <g id="Group_114" data-name="Group 114" transform="translate(32.333 52.058)">
    <path id="Path_89" data-name="Path 89" d="M-3.306-4.425h-7.375V-14.3h7.317v1.8H-8.72V-10.3h5.1v1.8h-5.1v2.27h5.414Z" transform="translate(10.681 14.295)" fill="#021963"/>
  </g>
  <g id="Group_116" data-name="Group 116" transform="translate(0 0)" clip-path="url(#clip-path)">
    <g id="Group_115" data-name="Group 115" transform="translate(41.14 51.874)">
      <path id="Path_90" data-name="Path 90" d="M-3.445-.259A4.314,4.314,0,0,1-1.711,1.376L-3.4,2.405A2.976,2.976,0,0,0-5.955,1.051a3.049,3.049,0,0,0-2.227.889,3.245,3.245,0,0,0-.888,2.341,3.241,3.241,0,0,0,.9,2.354,3.076,3.076,0,0,0,2.213.874A3,3,0,0,0-3.389,6.156l1.607,1.156A4.761,4.761,0,0,1-3.516,8.834,5.213,5.213,0,0,1-5.941,9.4,5.181,5.181,0,0,1-9.677,7.947a5.058,5.058,0,0,1-1.452-3.666A5.093,5.093,0,0,1-9.677.6,5.229,5.229,0,0,1-5.941-.838a5.42,5.42,0,0,1,2.5.579" transform="translate(11.129 0.838)" fill="#021963"/>
    </g>
  </g>
  <g id="Group_117" data-name="Group 117" transform="translate(51.234 52.058)">
    <path id="Path_92" data-name="Path 92" d="M-1.72,0-5.556,9.871h2.045l.86-2.3H1.565l.86,2.3h2.1v0L.676,0ZM-.536,1.946.888,5.753H-1.973Z" transform="translate(5.556)" fill="#021963"/>
  </g>
  <g id="Group_132" data-name="Group 132" transform="translate(0 0)" clip-path="url(#clip-path)">
    <g id="Group_118" data-name="Group 118" transform="translate(30.051 20.404)">
      <path id="Path_93" data-name="Path 93" d="M-7.656-.443c0-.135-.229-.328-.389-.381a9.067,9.067,0,0,0-4.1-.548c-1.852.258-3.688.65-5.522,1.027A12.4,12.4,0,0,1-24.02-.476c-.213-.067-.432-.117-.714-.193v3.36s.368.139.485.178a10.928,10.928,0,0,0,5.51.371c1.38-.26,2.749-.582,4.123-.87a12.163,12.163,0,0,1,5.985.051c.3.088.614.157.993.254,0-1.094.014-2.107-.018-3.119" transform="translate(24.734 1.432)" fill="#a8020c"/>
    </g>
    <g id="Group_119" data-name="Group 119" transform="translate(13.017 20.492)">
      <path id="Path_94" data-name="Path 94" d="M-7.637-.3c-.193-.057-.321-.1-.453-.133C-8.883-.6-9.67-.816-10.473-.909a18.855,18.855,0,0,0-6.61.855A12.56,12.56,0,0,1-24.07-.085a5.864,5.864,0,0,0-.589-.122c0,1,.025,1.937-.011,2.87-.016.4.137.6.488.653,1.075.18,2.147.416,3.231.494a19.952,19.952,0,0,0,5.9-.925,12.619,12.619,0,0,1,7.41.177Z" transform="translate(24.671 0.972)" fill="#021963"/>
    </g>
    <g id="Group_120" data-name="Group 120" transform="translate(30.051 13.603)">
      <path id="Path_95" data-name="Path 95" d="M-7.656-.443c0-.135-.229-.328-.389-.381a9.067,9.067,0,0,0-4.1-.548c-1.852.258-3.688.65-5.522,1.027A12.405,12.405,0,0,1-24.02-.476c-.213-.067-.432-.117-.714-.193v3.36s.368.139.485.178a10.928,10.928,0,0,0,5.51.371c1.38-.26,2.749-.582,4.123-.87a12.163,12.163,0,0,1,5.985.051c.3.088.614.157.993.254,0-1.094.014-2.107-.018-3.119" transform="translate(24.734 1.432)" fill="#a8020c"/>
    </g>
    <g id="Group_121" data-name="Group 121" transform="translate(13.017 13.691)">
      <path id="Path_96" data-name="Path 96" d="M-7.637-.3c-.193-.057-.321-.1-.453-.133C-8.883-.6-9.67-.816-10.473-.909a18.855,18.855,0,0,0-6.61.855A12.56,12.56,0,0,1-24.07-.085a5.864,5.864,0,0,0-.589-.122c0,1,.025,1.937-.011,2.87-.016.4.137.6.488.653,1.075.18,2.147.416,3.231.494a19.952,19.952,0,0,0,5.9-.925,12.614,12.614,0,0,1,7.41.177Z" transform="translate(24.671 0.972)" fill="#021963"/>
    </g>
    <g id="Group_122" data-name="Group 122" transform="translate(30.013 14.355)">
      <path id="Path_97" data-name="Path 97" d="M-.007,0l-.014,0V.011Z" transform="translate(0.021 0.007)" fill="#0054f9"/>
    </g>
    <g id="Group_123" data-name="Group 123" transform="translate(33.477 0)">
      <path id="Path_98" data-name="Path 98" d="M-6.12-.443c0-.135-.229-.328-.389-.381a9.067,9.067,0,0,0-4.1-.548c-1.852.258-3.688.65-5.522,1.027a14.85,14.85,0,0,1-3.636.33V3.416A10.95,10.95,0,0,0-17.2,3.24c1.38-.26,2.749-.582,4.123-.87A12.163,12.163,0,0,1-7.1,2.421c.3.088.614.157.993.254,0-1.094.014-2.107-.018-3.119" transform="translate(19.772 1.432)" fill="#a8020c"/>
    </g>
    <g id="Group_124" data-name="Group 124" transform="translate(33.477 27.23)">
      <path id="Path_99" data-name="Path 99" d="M-6.12-.443c0-.135-.229-.328-.389-.381a9.067,9.067,0,0,0-4.1-.548c-1.852.258-3.688.65-5.522,1.027a14.85,14.85,0,0,1-3.636.33V3.416A10.95,10.95,0,0,0-17.2,3.24c1.38-.26,2.749-.582,4.123-.87A12.163,12.163,0,0,1-7.1,2.421c.3.088.614.157.993.254,0-1.094.014-2.107-.018-3.119" transform="translate(19.772 1.432)" fill="#a8020c"/>
    </g>
    <g id="Group_125" data-name="Group 125" transform="translate(33.477 6.801)">
      <path id="Path_100" data-name="Path 100" d="M-6.12-.443c0-.135-.229-.328-.389-.381a9.067,9.067,0,0,0-4.1-.548c-1.852.258-3.688.65-5.522,1.027a14.85,14.85,0,0,1-3.636.33V3.416A10.95,10.95,0,0,0-17.2,3.24c1.38-.26,2.749-.582,4.123-.87A12.163,12.163,0,0,1-7.1,2.421c.3.088.614.157.993.254,0-1.094.014-2.107-.018-3.119" transform="translate(19.772 1.432)" fill="#a8020c"/>
    </g>
    <g id="Group_126" data-name="Group 126" transform="translate(13.016 0.096)">
      <path id="Path_101" data-name="Path 101" d="M-6.1-.007a20.947,20.947,0,0,0-6.02.9,12.56,12.56,0,0,1-6.987-.03A5.677,5.677,0,0,0-19.7.738c0,1,.026,1.937-.012,2.869-.015.4.138.6.489.654,1.075.179,2.147.416,3.231.494a19.974,19.974,0,0,0,5.9-.925A16.123,16.123,0,0,1-6.1,3.373Z" transform="translate(19.709 0.021)" fill="#021963"/>
    </g>
    <g id="Group_127" data-name="Group 127" transform="translate(13.016 6.897)">
      <path id="Path_102" data-name="Path 102" d="M-6.1-.007a20.947,20.947,0,0,0-6.02.9A12.56,12.56,0,0,1-19.108.859,5.694,5.694,0,0,0-19.7.738c0,1,.026,1.937-.012,2.869-.015.4.138.6.489.654,1.075.179,2.147.416,3.231.493a19.973,19.973,0,0,0,5.9-.924A16.09,16.09,0,0,1-6.1,3.373Z" transform="translate(19.709 0.021)" fill="#021963"/>
    </g>
    <g id="Group_128" data-name="Group 128" transform="translate(33.477 34.05)">
      <path id="Path_103" data-name="Path 103" d="M-6.12-.443c0-.135-.229-.328-.389-.381a9.067,9.067,0,0,0-4.1-.548c-1.852.258-3.688.65-5.522,1.027a14.85,14.85,0,0,1-3.636.33V3.416A10.95,10.95,0,0,0-17.2,3.24c1.38-.26,2.749-.582,4.123-.87A12.163,12.163,0,0,1-7.1,2.421c.3.088.614.157.993.254,0-1.094.014-2.107-.018-3.119" transform="translate(19.772 1.432)" fill="#a8020c"/>
    </g>
    <g id="Group_129" data-name="Group 129" transform="translate(13.016 27.326)">
      <path id="Path_104" data-name="Path 104" d="M-6.1-.007a20.947,20.947,0,0,0-6.02.9A12.56,12.56,0,0,1-19.108.859,5.864,5.864,0,0,0-19.7.737c0,1,.026,1.937-.012,2.87-.015.4.138.6.489.653,1.075.18,2.147.416,3.231.494a19.952,19.952,0,0,0,5.9-.925A16.122,16.122,0,0,1-6.1,3.373Z" transform="translate(19.709 0.021)" fill="#021963"/>
    </g>
    <g id="Group_130" data-name="Group 130" transform="translate(13.016 34.146)">
      <path id="Path_105" data-name="Path 105" d="M-6.1-.007a20.947,20.947,0,0,0-6.02.9,12.56,12.56,0,0,1-6.987-.03A5.66,5.66,0,0,0-19.7.737c0,1,.026,1.937-.012,2.87-.015.4.138.6.489.653,1.075.18,2.147.416,3.231.494a19.951,19.951,0,0,0,5.9-.924A16.09,16.09,0,0,1-6.1,3.373Z" transform="translate(19.709 0.021)" fill="#021963"/>
    </g>
    <g id="Group_131" data-name="Group 131" transform="translate(0.181 68.617)">
      <path id="Path_106" data-name="Path 106" d="M-.537-.015H-.872l-.864,2.129h.277l.234-.581H-.194l.234.581H.33ZM-.708.25l.414,1.029h-.83ZM2.463,1.86H1.243V-.015H.975V2.114H2.463Zm2.142,0H3.384V-.015H3.117V2.114H4.6ZM6.252-.015V2.114H7.12a.978.978,0,0,0,.569-.143.524.524,0,0,0,.21-.453.533.533,0,0,0-.1-.32.543.543,0,0,0-.252-.182A.453.453,0,0,0,7.768.846a.515.515,0,0,0,.085-.3A.49.49,0,0,0,7.634.113a1.047,1.047,0,0,0-.557-.128Zm.813.249A.783.783,0,0,1,7.424.3a.28.28,0,0,1,.149.268.281.281,0,0,1-.146.274A.749.749,0,0,1,7.068.91H6.52V.234Zm.042.925a.736.736,0,0,1,.371.072.3.3,0,0,1,.14.278.3.3,0,0,1-.14.28.729.729,0,0,1-.371.073H6.52v-.7Zm3.3-1.174h-.271V1.26a.623.623,0,0,1-.173.478.727.727,0,0,1-.882,0,.623.623,0,0,1-.174-.478V-.015H8.644V1.278a.833.833,0,0,0,.258.651,1.016,1.016,0,0,0,1.251,0,.842.842,0,0,0,.258-.651Zm2.394.2a1.539,1.539,0,0,0-.338-.167,1.364,1.364,0,0,0-.429-.064.981.981,0,0,0-.575.164.568.568,0,0,0-.24.474.486.486,0,0,0,.186.4.846.846,0,0,0,.447.164l.2.025c.329.043.508.137.508.335A.309.309,0,0,1,12.4,1.8a.76.76,0,0,1-.4.095,1.18,1.18,0,0,1-.393-.07.914.914,0,0,1-.3-.164l-.146.213a1.155,1.155,0,0,0,.383.2A1.379,1.379,0,0,0,12,2.145a1.039,1.039,0,0,0,.6-.164.576.576,0,0,0,.249-.484.482.482,0,0,0-.2-.409A1.043,1.043,0,0,0,12.174.93L11.985.909C11.666.866,11.5.772,11.5.578A.32.32,0,0,1,11.653.3a.692.692,0,0,1,.383-.1,1.112,1.112,0,0,1,.633.2Zm1.081-.2H13.62V2.114h.267Zm2.7,0h-.267v1.67L15.025-.018h-.24V2.114h.267V.442l1.288,1.676h.243Zm2.41,1.877H17.748V1.169h1.19V.917h-1.19V.234h1.229V-.015h-1.5V2.114h1.511ZM21.356.185a1.549,1.549,0,0,0-.337-.167,1.372,1.372,0,0,0-.429-.064.981.981,0,0,0-.575.164.568.568,0,0,0-.24.474.486.486,0,0,0,.186.4.848.848,0,0,0,.447.164l.2.025c.329.043.508.137.508.335a.309.309,0,0,1-.164.274.758.758,0,0,1-.4.095,1.176,1.176,0,0,1-.392-.07.911.911,0,0,1-.3-.164l-.146.213a1.155,1.155,0,0,0,.383.2,1.382,1.382,0,0,0,.456.076,1.037,1.037,0,0,0,.6-.164.576.576,0,0,0,.249-.484.482.482,0,0,0-.2-.409A1.04,1.04,0,0,0,20.724.93L20.535.909c-.32-.043-.481-.137-.481-.331A.32.32,0,0,1,20.2.3a.693.693,0,0,1,.384-.1,1.111,1.111,0,0,1,.632.2Zm2.34,0a1.549,1.549,0,0,0-.337-.167,1.372,1.372,0,0,0-.429-.064.981.981,0,0,0-.575.164.568.568,0,0,0-.24.474A.486.486,0,0,0,22.3,1a.846.846,0,0,0,.447.164l.2.025c.329.043.508.137.508.335a.309.309,0,0,1-.164.274.76.76,0,0,1-.4.095,1.18,1.18,0,0,1-.393-.07.914.914,0,0,1-.3-.164l-.146.213a1.155,1.155,0,0,0,.383.2,1.382,1.382,0,0,0,.456.076,1.039,1.039,0,0,0,.6-.164.576.576,0,0,0,.249-.484.482.482,0,0,0-.2-.409A1.043,1.043,0,0,0,23.063.93L22.875.909c-.32-.043-.481-.137-.481-.331A.32.32,0,0,1,22.543.3a.693.693,0,0,1,.384-.1,1.111,1.111,0,0,1,.632.2Zm2.325,1.677H24.776V1.169h1.19V.917h-1.19V.234h1.229V-.015h-1.5V2.114h1.512ZM28.385.185a1.539,1.539,0,0,0-.338-.167,1.364,1.364,0,0,0-.429-.064.981.981,0,0,0-.575.164.568.568,0,0,0-.24.474.486.486,0,0,0,.186.4.846.846,0,0,0,.447.164l.2.025c.329.043.508.137.508.335a.309.309,0,0,1-.164.274.76.76,0,0,1-.4.095,1.18,1.18,0,0,1-.393-.07.925.925,0,0,1-.3-.164l-.146.213a1.155,1.155,0,0,0,.383.2,1.379,1.379,0,0,0,.456.076,1.039,1.039,0,0,0,.6-.164.576.576,0,0,0,.249-.484.482.482,0,0,0-.2-.409A1.043,1.043,0,0,0,27.752.93L27.563.909c-.319-.043-.481-.137-.481-.331A.32.32,0,0,1,27.232.3a.692.692,0,0,1,.383-.1,1.112,1.112,0,0,1,.633.2Zm.91,1.543a.21.21,0,0,0-.146.061.21.21,0,0,0,.146.356.208.208,0,0,0,.146-.064.2.2,0,0,0,0-.292.217.217,0,0,0-.146-.061M32.342-.048a1.1,1.1,0,0,0-.792.309,1.087,1.087,0,0,0-.313.788,1.091,1.091,0,0,0,.313.788,1.1,1.1,0,0,0,.792.31A1.164,1.164,0,0,0,32.911,2a.989.989,0,0,0,.389-.387,1.142,1.142,0,0,0,.143-.566A1.163,1.163,0,0,0,33.3.481a1.008,1.008,0,0,0-.389-.387,1.162,1.162,0,0,0-.569-.142m0,.258a.828.828,0,0,1,.587.231.846.846,0,0,1,.235.608.838.838,0,0,1-.235.606.819.819,0,0,1-.587.235.8.8,0,0,1-.588-.235.829.829,0,0,1-.238-.606.836.836,0,0,1,.238-.608A.813.813,0,0,1,32.342.21m3.675-.225H35.75v1.67L34.459-.018h-.24V2.114h.267V.442l1.288,1.676h.243Zm2.41,1.877H37.182V1.169h1.19V.917h-1.19V.234h1.23V-.015h-1.5V2.114h1.512ZM41.864.185a1.554,1.554,0,0,0-.338-.167A1.366,1.366,0,0,0,41.1-.045a.983.983,0,0,0-.575.164.569.569,0,0,0-.24.474.488.488,0,0,0,.186.4.848.848,0,0,0,.447.164l.2.025c.329.043.509.137.509.335a.31.31,0,0,1-.165.274.757.757,0,0,1-.4.095,1.177,1.177,0,0,1-.393-.07.925.925,0,0,1-.3-.164l-.146.213a1.144,1.144,0,0,0,.383.2,1.383,1.383,0,0,0,.457.076,1.039,1.039,0,0,0,.6-.164A.576.576,0,0,0,41.9,1.5a.482.482,0,0,0-.2-.409A1.04,1.04,0,0,0,41.231.93L41.043.909c-.32-.043-.481-.137-.481-.331A.322.322,0,0,1,40.711.3a.693.693,0,0,1,.384-.1,1.115,1.115,0,0,1,.633.2Zm1.792-.233a1.1,1.1,0,0,0-.791.309,1.087,1.087,0,0,0-.313.788,1.091,1.091,0,0,0,.313.788,1.1,1.1,0,0,0,.791.31A1.165,1.165,0,0,0,44.226,2a.989.989,0,0,0,.389-.387,1.142,1.142,0,0,0,.142-.566,1.162,1.162,0,0,0-.142-.569,1.008,1.008,0,0,0-.389-.387,1.163,1.163,0,0,0-.57-.142m0,.258a.83.83,0,0,1,.588.231.846.846,0,0,1,.235.608.838.838,0,0,1-.235.606.821.821,0,0,1-.588.235.8.8,0,0,1-.587-.235.829.829,0,0,1-.238-.606.836.836,0,0,1,.238-.608A.813.813,0,0,1,43.656.21M47.021,1.86H45.8V-.015h-.267V2.114h1.487ZM49.374-.015H49.1V1.26a.625.625,0,0,1-.173.478.621.621,0,0,1-.441.149.628.628,0,0,1-.442-.149.625.625,0,0,1-.173-.478V-.015h-.267V1.278a.833.833,0,0,0,.258.651,1.016,1.016,0,0,0,1.251,0,.845.845,0,0,0,.258-.651Zm2.345,0H50V.237h.727V2.114h.267V.237h.727Zm.922,0h-.267V2.114h.267Zm1.88-.033a1.1,1.1,0,0,0-.791.309,1.087,1.087,0,0,0-.313.788,1.091,1.091,0,0,0,.313.788,1.1,1.1,0,0,0,.791.31A1.165,1.165,0,0,0,55.091,2a.988.988,0,0,0,.389-.387,1.135,1.135,0,0,0,.143-.566A1.155,1.155,0,0,0,55.48.481a1.006,1.006,0,0,0-.389-.387,1.163,1.163,0,0,0-.57-.142m0,.258a.83.83,0,0,1,.588.231.845.845,0,0,1,.234.608.837.837,0,0,1-.234.606.821.821,0,0,1-.588.235.8.8,0,0,1-.587-.235A.829.829,0,0,1,53.7,1.05a.836.836,0,0,1,.238-.608A.812.812,0,0,1,54.522.21M58.2-.015H57.93v1.67L56.639-.018H56.4V2.114h.267V.442l1.287,1.676H58.2Zm1,1.743a.212.212,0,0,0-.146.061.21.21,0,0,0,.146.356.208.208,0,0,0,.146-.064.2.2,0,0,0,0-.292.217.217,0,0,0-.146-.061" transform="translate(1.736 0.048)" fill="#021963"/>
    </g>
  </g>
</svg>
