<svg xmlns="http://www.w3.org/2000/svg" width="23" height="23" viewBox="0 0 23 23"><defs><style>.a{fill:#282828;}.b{fill:#f0f0f0;}</style></defs><g transform="translate(-391 -4831)"><rect class="a" width="23" height="23" rx="3" transform="translate(391 4831)"/><g transform="translate(395 4825.457)"><g transform="translate(0 9.708)"><rect class="b" width="3.357" height="10.082" transform="translate(0.193 4.853)"/><path class="b" d="M160.763,140.486a3.613,3.613,0,0,0-2.8-1.155,4.032,4.032,0,0,0-1.165.158,2.643,2.643,0,0,0-.885.443,3.79,3.79,0,0,0-.972,1.067v-1.434H151.6l.01.488q.01.489.01,3.011t-.02,6.582h3.347v-5.626a2.457,2.457,0,0,1,.112-.824,2.161,2.161,0,0,1,.646-.87,1.647,1.647,0,0,1,1.073-.351,1.447,1.447,0,0,1,1.287.605,2.943,2.943,0,0,1,.412,1.674v5.392h3.347v-5.778A4.844,4.844,0,0,0,160.763,140.486Z" transform="translate(-146.195 -134.712)"/><path class="b" d="M1.892,9.708A1.915,1.915,0,0,0,.524,10.2,1.638,1.638,0,0,0,0,11.448a1.667,1.667,0,0,0,.509,1.241,1.836,1.836,0,0,0,1.343.5h.02a1.917,1.917,0,0,0,1.379-.5,1.611,1.611,0,0,0,.514-1.241A1.7,1.7,0,0,0,3.245,10.2,1.86,1.86,0,0,0,1.892,9.708Z" transform="translate(0 -9.708)"/></g></g></g></svg>