<svg xmlns="http://www.w3.org/2000/svg" width="12.421" height="10.169" viewBox="0 0 12.421 10.169"><defs><style>.a{fill:#f0f0f0;}</style></defs><path class="a" d="M12.137,29.271a4.708,4.708,0,0,1-.6.219,2.655,2.655,0,0,0,.541-.951.2.2,0,0,0-.293-.233,4.728,4.728,0,0,1-1.4.552,2.668,2.668,0,0,0-4.533,1.906,2.72,2.72,0,0,0,.022.344A6.826,6.826,0,0,1,1.19,28.622a.2.2,0,0,0-.328.026,2.67,2.67,0,0,0,.273,3.069,2.258,2.258,0,0,1-.357-.159.2.2,0,0,0-.3.171c0,.012,0,.024,0,.036a2.676,2.676,0,0,0,1.305,2.293c-.068-.007-.136-.017-.2-.029a.2.2,0,0,0-.228.258,2.666,2.666,0,0,0,1.953,1.787,4.717,4.717,0,0,1-2.522.72,4.824,4.824,0,0,1-.565-.033.2.2,0,0,0-.132.368,7.191,7.191,0,0,0,3.888,1.14,6.918,6.918,0,0,0,5.36-2.354A7.461,7.461,0,0,0,11.2,31.049c0-.073,0-.147,0-.221a5.183,5.183,0,0,0,1.193-1.264.2.2,0,0,0-.248-.295Z" transform="translate(0.002 -28.097)"/></svg>